<svg width="12" height="18" viewBox="0 0 12 18" fill="none" xmlns="http://www.w3.org/2000/svg">
<path d="M5.53832 17.1673C3.99204 17.1673 2.74543 16.9646 1.79848 16.5593C0.85154 16.154 0.378067 15.622 0.378067 14.9634C0.378067 14.6148 0.535418 14.2926 0.850119 13.9969C1.16482 13.7012 1.60868 13.4452 2.18169 13.2289L3.12916 14.1006C2.84721 14.1925 2.55173 14.3147 2.24271 14.4672C1.93385 14.6197 1.69543 14.7897 1.52746 14.9771C1.60105 15.2154 2.05754 15.4455 2.89695 15.6675C3.7362 15.8896 4.61524 16.0007 5.53406 16.0007C6.51257 16.0007 7.41404 15.8896 8.23848 15.6675C9.06278 15.4455 9.49684 15.193 9.54066 14.9098C9.37494 14.758 9.12814 14.6059 8.80028 14.4535C8.47227 14.3011 8.16736 14.1788 7.88557 14.0866L8.84156 13.2013C9.45017 13.4119 9.91183 13.6726 10.2265 13.9832C10.5412 14.2939 10.6986 14.6193 10.6986 14.9596C10.6986 15.6194 10.2251 16.1522 9.27816 16.5582C8.33122 16.9643 7.08461 17.1673 5.53832 17.1673ZM5.56076 13.0167C6.98738 11.9351 8.05825 10.8418 8.77336 9.73677C9.48846 8.63158 9.84602 7.55668 9.84602 6.51206C9.84602 5.02337 9.38376 3.89933 8.45925 3.13995C7.53475 2.38042 6.56252 2.00065 5.54259 2.00065C4.52265 2.00065 3.54901 2.38064 2.62166 3.14062C1.69431 3.90045 1.23063 5.02509 1.23063 6.51453C1.23063 7.50231 1.59103 8.54273 2.31182 9.63581C3.03261 10.7289 4.11559 11.8558 5.56076 13.0167ZM5.53832 14.475C3.69963 13.1006 2.3276 11.7422 1.42223 10.3998C0.516722 9.05749 0.0639648 7.76204 0.0639648 6.51341C0.0639648 5.5886 0.229093 4.77298 0.559349 4.06655C0.889606 3.36012 1.31873 2.76841 1.84672 2.29142C2.37486 1.81458 2.96358 1.45247 3.61288 1.20507C4.26202 0.95768 4.90429 0.833984 5.53967 0.833984C6.17505 0.833984 6.81687 0.95768 7.46512 1.20507C8.11352 1.45247 8.70179 1.81458 9.22993 2.29142C9.75792 2.76841 10.187 3.36034 10.5173 4.06722C10.8476 4.7741 11.0127 5.58905 11.0127 6.51206C11.0127 7.76084 10.5599 9.05652 9.65441 10.3991C8.74905 11.7416 7.37702 13.1003 5.53832 14.475ZM5.54259 7.82882C5.94239 7.82882 6.28207 7.69047 6.56163 7.41376C6.84133 7.13705 6.98118 6.79588 6.98118 6.39024C6.98118 5.98474 6.84103 5.64222 6.56073 5.36267C6.28043 5.08297 5.93963 4.94312 5.53832 4.94312C5.14136 4.94312 4.80168 5.08701 4.51929 5.37479C4.23674 5.66271 4.09547 5.99978 4.09547 6.38597C4.09547 6.7795 4.23674 7.11836 4.51929 7.40254C4.80168 7.68673 5.14278 7.82882 5.54259 7.82882Z" fill="white"/>
</svg>
