<svg width="17" height="18" viewBox="0 0 17 18" fill="none" xmlns="http://www.w3.org/2000/svg">
<path d="M2.54108 17.1673C1.87444 17.1673 1.30778 16.9332 0.841113 16.4651C0.374447 15.9969 0.141113 15.4285 0.141113 14.7597C0.141113 14.1867 0.312524 13.6833 0.655344 13.2496C0.998314 12.8158 1.43499 12.539 1.96538 12.4192V10.5559C1.96538 9.96898 2.17508 9.46582 2.59448 9.04642C3.01388 8.62702 3.51981 8.41732 4.11227 8.41732H7.72445V5.56616C7.19406 5.44202 6.75746 5.16681 6.41464 4.74052C6.07167 4.31424 5.90018 3.81459 5.90018 3.24158C5.90018 2.57284 6.13352 2.00439 6.60018 1.53623C7.06685 1.06807 7.63351 0.833984 8.30015 0.833984C8.9668 0.833984 9.536 1.06807 10.0077 1.53623C10.4795 2.00439 10.7154 2.57284 10.7154 3.24158C10.7154 3.81459 10.5439 4.31424 10.2009 4.74052C9.8581 5.16681 9.4215 5.44045 8.89111 5.56145V8.41732H12.5033C13.0958 8.41732 13.6017 8.62702 14.0211 9.04642C14.4405 9.46582 14.6502 9.97175 14.6502 10.5642V12.4201C15.1806 12.5393 15.6172 12.8158 15.9602 13.2496C16.303 13.6833 16.4744 14.1867 16.4744 14.7597C16.4744 15.4285 16.2386 15.9969 15.7668 16.4651C15.2951 16.9332 14.7259 17.1673 14.0592 17.1673C13.3926 17.1673 12.8259 16.9332 12.3593 16.4651C11.8927 15.9969 11.6595 15.4285 11.6595 14.7597C11.6595 14.1867 11.8309 13.6833 12.1737 13.2496C12.5165 12.8158 12.9531 12.5394 13.4835 12.4203V10.5665C13.4835 10.2917 13.3896 10.0593 13.2017 9.86914C13.0139 9.67904 12.7811 9.58398 12.5033 9.58398H8.89111V12.4127C9.4215 12.5368 9.8581 12.8158 10.2009 13.2496C10.5439 13.6833 10.7154 14.1867 10.7154 14.7597C10.7154 15.4285 10.4795 15.9969 10.0077 16.4651C9.536 16.9332 8.9668 17.1673 8.30015 17.1673C7.63351 17.1673 7.06685 16.9332 6.60018 16.4651C6.13352 15.9969 5.90018 15.4285 5.90018 14.7597C5.90018 14.1867 6.07167 13.6833 6.41464 13.2496C6.75746 12.8158 7.19406 12.539 7.72445 12.4192V9.58398H4.11227C3.83451 9.58398 3.6017 9.67792 3.41384 9.86578C3.22597 10.0536 3.13204 10.2865 3.13204 10.5642V12.4201C3.66243 12.5393 4.09903 12.8158 4.44185 13.2496C4.78467 13.6833 4.95608 14.1867 4.95608 14.7597C4.95608 15.4285 4.72028 15.9969 4.24868 16.4651C3.77693 16.9332 3.20773 17.1673 2.54108 17.1673ZM2.54445 16.0007C2.89265 16.0007 3.18724 15.8817 3.4282 15.6439C3.66916 15.4062 3.78964 15.1117 3.78964 14.7602C3.78964 14.4087 3.66983 14.1139 3.43022 13.876C3.19075 13.6379 2.894 13.5188 2.53996 13.5188C2.1946 13.5188 1.90293 13.6393 1.66496 13.8802C1.42684 14.1212 1.30778 14.4144 1.30778 14.7597C1.30778 15.1051 1.42684 15.3982 1.66496 15.6392C1.90293 15.8802 2.19609 16.0007 2.54445 16.0007ZM8.30352 16.0007C8.65172 16.0007 8.94631 15.8817 9.18727 15.6439C9.42823 15.4062 9.54871 15.1117 9.54871 14.7602C9.54871 14.4087 9.42898 14.1139 9.18951 13.876C8.9499 13.6379 8.65314 13.5188 8.29925 13.5188C7.95374 13.5188 7.662 13.6393 7.42403 13.8802C7.18591 14.1212 7.06685 14.4144 7.06685 14.7597C7.06685 15.1051 7.18591 15.3982 7.42403 15.6392C7.662 15.8802 7.95516 16.0007 8.30352 16.0007ZM14.0626 16.0007C14.4108 16.0007 14.7054 15.8817 14.9463 15.6439C15.1873 15.4062 15.3078 15.1117 15.3078 14.7602C15.3078 14.4087 15.188 14.1139 14.9486 13.876C14.7091 13.6379 14.4124 13.5188 14.0583 13.5188C13.7128 13.5188 13.4211 13.6393 13.1831 13.8802C12.945 14.1212 12.8259 14.4144 12.8259 14.7597C12.8259 15.1051 12.945 15.3982 13.1831 15.6392C13.4211 15.8802 13.7142 16.0007 14.0626 16.0007ZM8.30352 4.48251C8.65172 4.48251 8.94631 4.3636 9.18727 4.12578C9.42823 3.88811 9.54871 3.59353 9.54871 3.24203C9.54871 2.89053 9.42898 2.5958 9.18951 2.35783C8.9499 2.11971 8.65314 2.00065 8.29925 2.00065C7.95374 2.00065 7.662 2.12113 7.42403 2.36209C7.18591 2.60305 7.06685 2.89622 7.06685 3.24158C7.06685 3.58694 7.18591 3.88011 7.42403 4.12107C7.662 4.36203 7.95516 4.48251 8.30352 4.48251Z" fill="white"/>
</svg>
