<svg width="22" height="20" viewBox="0 0 22 20" fill="none" xmlns="http://www.w3.org/2000/svg">
<path d="M14.7726 10.2912L13.6496 9.16818C13.7996 8.34001 13.5633 7.59543 12.9408 6.93443C12.3185 6.2736 11.5548 6.01818 10.6496 6.16818L9.52659 5.04518C9.75225 4.94385 9.98367 4.86785 10.2208 4.81718C10.458 4.76651 10.7176 4.74118 10.9996 4.74118C12.1343 4.74118 13.0974 5.13701 13.8891 5.92868C14.6808 6.72035 15.0766 7.68351 15.0766 8.81818C15.0766 9.10018 15.0513 9.36301 15.0006 9.60668C14.9499 9.85018 14.8739 10.0783 14.7726 10.2912ZM17.9533 13.4027L16.8496 12.3682C17.4829 11.8848 18.0454 11.3557 18.5371 10.7807C19.0288 10.2057 19.4496 9.55151 19.7996 8.81818C18.9663 7.13485 17.7704 5.79735 16.2121 4.80568C14.6538 3.81401 12.9163 3.31818 10.9996 3.31818C10.5163 3.31818 10.0413 3.35151 9.57459 3.41818C9.10792 3.48485 8.64959 3.58485 8.19959 3.71818L7.03434 2.55293C7.66634 2.3016 8.31184 2.11635 8.97084 1.99718C9.62984 1.87785 10.3061 1.81818 10.9996 1.81818C13.3431 1.81818 15.4565 2.46435 17.3398 3.75668C19.2232 5.04901 20.5969 6.73618 21.4611 8.81818C21.0906 9.71168 20.6121 10.5457 20.0256 11.3202C19.4389 12.0945 18.7482 12.7887 17.9533 13.4027ZM18.7611 19.1874L14.7151 15.1719C14.2023 15.3618 13.6339 15.5169 13.0101 15.6374C12.3864 15.7579 11.7163 15.8182 10.9996 15.8182C8.64959 15.8182 6.53617 15.172 4.65934 13.8797C2.78234 12.5873 1.40859 10.9002 0.538086 8.81818C0.907253 7.93485 1.38417 7.11085 1.96884 6.34618C2.5535 5.58135 3.19709 4.91818 3.89959 4.35668L1.13034 1.55668L2.18434 0.50293L19.8148 18.1334L18.7611 19.1874ZM4.95359 5.41043C4.42525 5.83093 3.91142 6.33643 3.41209 6.92693C2.91275 7.51726 2.50859 8.14768 2.19959 8.81818C3.03292 10.5015 4.22875 11.839 5.78709 12.8307C7.34542 13.8223 9.08292 14.3182 10.9996 14.3182C11.4548 14.3182 11.908 14.2797 12.3593 14.2027C12.8105 14.1258 13.1932 14.0464 13.5073 13.9644L12.2418 12.6682C12.0713 12.7373 11.8739 12.7924 11.6496 12.8334C11.4253 12.8746 11.2086 12.8952 10.9996 12.8952C9.86492 12.8952 8.90175 12.4993 8.11009 11.7077C7.31842 10.916 6.92259 9.95285 6.92259 8.81818C6.92259 8.61568 6.94317 8.40385 6.98434 8.18268C7.02534 7.96151 7.08042 7.75926 7.14959 7.57593L4.95359 5.41043Z" fill="#1C1B1F"/>
</svg>
